<svg xmlns="http://www.w3.org/2000/svg" viewBox="0 0 64 64" id="Gst"><path d="M53 46h-3.5V13.5c0-2.481-2.019-4.5-4.5-4.5H11c-2.481 0-4.5 2.019-4.5 4.5S8.519 18 11 18h3.5v32.5c0 2.481 2.019 4.5 4.5 4.5h34c2.481 0 4.5-2.019 4.5-4.5S55.481 46 53 46zM11 17c-1.93 0-3.5-1.57-3.5-3.5S9.07 10 11 10c1.758 0 3.204 1.308 3.449 3H11a.5.5 0 0 0 0 1c.827 0 1.5.673 1.5 1.5S11.827 17 11 17zm3.5-2.312V17h-1.513c.317-.419.513-.935.513-1.5s-.195-1.081-.513-1.5H14.5v.688zm21.937-.188a.5.5 0 0 1 .5-.5h4a.5.5 0 0 1 .5.5v1a.5.5 0 0 1-1 0V15h-1v5.5a.5.5 0 0 1-1 0V15h-1v.5a.5.5 0 0 1-1 0v-1zm-7 5a.5.5 0 0 1 1 0v.5h3v-2h-3.5a.5.5 0 0 1-.5-.5v-3a.5.5 0 0 1 .5-.5h4a.5.5 0 0 1 .5.5v1a.5.5 0 0 1-1 0V15h-3v2h3.5a.5.5 0 0 1 .5.5v3a.5.5 0 0 1-.5.5h-4a.5.5 0 0 1-.5-.5v-1zm-7 0v-5a.5.5 0 0 1 .5-.5h4a.5.5 0 0 1 .5.5v1a.5.5 0 0 1-1 0V15h-3v5h3v-2h-1.5a.5.5 0 0 1 0-1h2a.5.5 0 0 1 .5.5v3a.5.5 0 0 1-.5.5h-4a.5.5 0 0 1-.5-.5v-1zm.5 3.5h18a.5.5 0 0 1 0 1h-18a.5.5 0 0 1 0-1zm-5 5h28a.5.5 0 0 1 0 1h-28a.5.5 0 0 1 0-1zm0 3h28a.5.5 0 0 1 0 1h-28a.5.5 0 0 1 0-1zm0 3h28a.5.5 0 0 1 0 1h-28a.5.5 0 0 1 0-1zm0 3h28a.5.5 0 0 1 0 1h-28a.5.5 0 0 1 0-1zm0 3h28a.5.5 0 0 1 0 1h-28a.5.5 0 0 1 0-1zm0 3h28a.5.5 0 0 1 0 1h-28a.5.5 0 0 1 0-1zm0 7a.5.5 0 0 1 0-1h4.213c.149.311.248.646.299 1h-4.512zM53 54H21.794c.239-.191.455-.404.65-.639l.086-.104a4.538 4.538 0 0 0 .656-1.136c.084-.212.153-.43.204-.656.011-.052.019-.105.028-.158.049-.262.082-.53.082-.807s-.033-.544-.082-.807c-.01-.053-.017-.106-.028-.158a4.38 4.38 0 0 0-.538-1.326A4.538 4.538 0 0 0 21.794 47H53c1.93 0 3.5 1.57 3.5 3.5S54.93 54 53 54z" fill="#ffffff" class="color000000 svgShape"></path></svg>